{
  "accessors": [
    {
      "bufferView": 2,
      "componentType": 5126,
      "count": 3394,
      "max": [
        0.6091700196266174,
        1.0009759664535522,
        0.6683380007743835
      ],
      "min": [
        0.0007350000087171793,
        -1.3596240282058716,
        0.003063000040128827
      ],
      "type": "VEC3"
    },
    {
      "bufferView": 2,
      "byteOffset": 40728,
      "componentType": 5126,
      "count": 3394,
      "max": [
        1.0,
        1.0,
        1.0
      ],
      "min": [
        -1.0,
        -1.0,
        -1.0
      ],
      "type": "VEC3"
    },
    {
      "bufferView": 3,
      "componentType": 5126,
      "count": 3394,
      "max": [
        1.0,
        1.0,
        1.0,
        1.0
      ],
      "min": [
        -1.0,
        -1.0,
        -1.0,
        -1.0
      ],
      "type": "VEC4"
    },
    {
      "bufferView": 1,
      "componentType": 5126,
      "count": 3394,
      "max": [
        0.9933459758758545,
        0.9957380294799805
      ],
      "min": [
        0.005375000182539225,
        0.008097999729216099
      ],
      "type": "VEC2"
    },
    {
      "bufferView": 0,
      "componentType": 5125,
      "count": 13755,
      "type": "SCALAR"
    },
    {
      "bufferView": 2,
      "byteOffset": 81456,
      "componentType": 5126,
      "count": 522,
      "max": [
        -0.38858601450920105,
        1.3386369943618774,
        2.3672170639038086
      ],
      "min": [
        -0.4027869999408722,
        -1.6252180337905884,
        0.8938390016555786
      ],
      "type": "VEC3"
    },
    {
      "bufferView": 2,
      "byteOffset": 87720,
      "componentType": 5126,
      "count": 522,
      "max": [
        1.0,
        1.0,
        1.0
      ],
      "min": [
        -1.0,
        -1.0,
        -1.0
      ],
      "type": "VEC3"
    },
    {
      "bufferView": 3,
      "byteOffset": 54304,
      "componentType": 5126,
      "count": 522,
      "max": [
        1.0,
        1.0,
        1.0,
        1.0
      ],
      "min": [
        -1.0,
        -0.7039999961853027,
        -1.0,
        -1.0
      ],
      "type": "VEC4"
    },
    {
      "bufferView": 1,
      "byteOffset": 27152,
      "componentType": 5126,
      "count": 522,
      "max": [
        1.0013630390167236,
        1.0041370391845703
      ],
      "min": [
        0.000155999994603917,
        0.005107000004500151
      ],
      "type": "VEC2"
    },
    {
      "bufferView": 0,
      "byteOffset": 55020,
      "componentType": 5125,
      "count": 1974,
      "type": "SCALAR"
    },
    {
      "bufferView": 2,
      "byteOffset": 93984,
      "componentType": 5126,
      "count": 3544,
      "max": [
        1.35036301612854,
        1.1907780170440674,
        0.8922780156135559
      ],
      "min": [
        0.6956419944763184,
        -1.1442170143127441,
        0.0005810000002384186
      ],
      "type": "VEC3"
    },
    {
      "bufferView": 2,
      "byteOffset": 136512,
      "componentType": 5126,
      "count": 3544,
      "max": [
        1.0,
        1.0,
        1.0
      ],
      "min": [
        -1.0,
        -1.0,
        -1.0
      ],
      "type": "VEC3"
    },
    {
      "bufferView": 3,
      "byteOffset": 62656,
      "componentType": 5126,
      "count": 3544,
      "max": [
        1.0,
        1.0,
        1.0,
        1.0
      ],
      "min": [
        -1.0,
        -0.9999135732650757,
        -1.0,
        -1.0
      ],
      "type": "VEC4"
    },
    {
      "bufferView": 1,
      "byteOffset": 31328,
      "componentType": 5126,
      "count": 3544,
      "max": [
        0.9939910173416138,
        0.9816340208053589
      ],
      "min": [
        0.013429000042378902,
        0.1266849935054779
      ],
      "type": "VEC2"
    },
    {
      "bufferView": 0,
      "byteOffset": 62916,
      "componentType": 5125,
      "count": 14340,
      "type": "SCALAR"
    },
    {
      "bufferView": 2,
      "byteOffset": 179040,
      "componentType": 5126,
      "count": 2771,
      "max": [
        -0.01872899942100048,
        0.6806979775428772,
        2.362283945083618
      ],
      "min": [
        -0.4094190001487732,
        -0.47541800141334534,
        1.0146509408950806
      ],
      "type": "VEC3"
    },
    {
      "bufferView": 2,
      "byteOffset": 212292,
      "componentType": 5126,
      "count": 2771,
      "max": [
        0.9999995231628418,
        0.9997257590293884,
        0.9993689060211182
      ],
      "min": [
        -1.0,
        -0.9997257590293884,
        -1.0
      ],
      "type": "VEC3"
    },
    {
      "bufferView": 3,
      "byteOffset": 119360,
      "componentType": 5126,
      "count": 2771,
      "max": [
        0.998882532119751,
        1.0,
        0.9999911189079285,
        1.0
      ],
      "min": [
        -0.9943128228187561,
        -1.0,
        -0.9997806549072266,
        -1.0
      ],
      "type": "VEC4"
    },
    {
      "bufferView": 1,
      "byteOffset": 59680,
      "componentType": 5126,
      "count": 2771,
      "max": [
        0.9899680018424988,
        0.9537910223007202
      ],
      "min": [
        0.017616000026464462,
        0.020015999674797058
      ],
      "type": "VEC2"
    },
    {
      "bufferView": 0,
      "byteOffset": 120276,
      "componentType": 5125,
      "count": 11016,
      "type": "SCALAR"
    }
  ],
  "asset": {
    "extras": {
      "author": "n-malmberg (https://sketchfab.com/n-malmberg)",
      "license": "CC-BY-4.0 (http://creativecommons.org/licenses/by/4.0/)",
      "source": "https://sketchfab.com/3d-models/lowpoly-victorian-props-with-customizable-psd-8e790a9b805a486fb7f8d46a462b14e8",
      "title": "Lowpoly victorian props with customizable PSD"
    },
    "generator": "Sketchfab-16.9.0",
    "version": "2.0"
  },
  "bufferViews": [
    {
      "buffer": 0,
      "byteLength": 164340,
      "name": "floatBufferViews",
      "target": 34963
    },
    {
      "buffer": 0,
      "byteLength": 81848,
      "byteOffset": 164340,
      "byteStride": 8,
      "name": "floatBufferViews",
      "target": 34962
    },
    {
      "buffer": 0,
      "byteLength": 245544,
      "byteOffset": 246188,
      "byteStride": 12,
      "name": "floatBufferViews",
      "target": 34962
    },
    {
      "buffer": 0,
      "byteLength": 163696,
      "byteOffset": 491732,
      "byteStride": 16,
      "name": "floatBufferViews",
      "target": 34962
    }
  ],
  "buffers": [
    {
      "byteLength": 655428,
      "uri": "scene.bin"
    }
  ],
  "extensionsUsed": [
    "KHR_materials_specular",
    "KHR_materials_transmission"
  ],
  "images": [
    {
      "uri": "textures/Buddah-urne-vase-globe-gramophone_baseColor.png"
    },
    {
      "uri": "textures/Buddah-urne-vase-globe-gramophone_metallicRoughness.png"
    },
    {
      "uri": "textures/Buddah-urne-vase-globe-gramophone_normal.png"
    },
    {
      "uri": "textures/Buddah-urne-vase-globe-gramophone_specularf0.png"
    },
    {
      "uri": "textures/Paintings_baseColor.png"
    },
    {
      "uri": "textures/Paintings_metallicRoughness.png"
    },
    {
      "uri": "textures/Paintings_normal.png"
    },
    {
      "uri": "textures/Paintings_specularf0.png"
    },
    {
      "uri": "textures/philosopher-timeglas-photoalbum-glasses-shisha_baseColor.png"
    },
    {
      "uri": "textures/philosopher-timeglas-photoalbum-glasses-shisha_metallicRoughness.png"
    },
    {
      "uri": "textures/philosopher-timeglas-photoalbum-glasses-shisha_normal.png"
    },
    {
      "uri": "textures/philosopher-timeglas-photoalbum-glasses-shisha_transmission.png"
    },
    {
      "uri": "textures/philosopher-timeglas-photoalbum-glasses-shisha_specularf0.png"
    },
    {
      "uri": "textures/ratpig-sword-masks_baseColor.png"
    },
    {
      "uri": "textures/ratpig-sword-masks_metallicRoughness.png"
    },
    {
      "uri": "textures/ratpig-sword-masks_normal.png"
    },
    {
      "uri": "textures/ratpig-sword-masks_specularf0.png"
    }
  ],
  "materials": [
    {
      "alphaCutoff": 0.5958113396155111,
      "alphaMode": "MASK",
      "doubleSided": true,
      "extensions": {
        "KHR_materials_specular": {
          "specularColorFactor": [
            1.0,
            1.0,
            1.0
          ],
          "specularFactor": 1.0,
          "specularTexture": {
            "index": 3
          }
        }
      },
      "name": "Buddah-urne-vase-globe-gramophone",
      "normalTexture": {
        "index": 2
      },
      "pbrMetallicRoughness": {
        "baseColorTexture": {
          "index": 0
        },
        "metallicRoughnessTexture": {
          "index": 1
        }
      }
    },
    {
      "doubleSided": true,
      "extensions": {
        "KHR_materials_specular": {
          "specularColorFactor": [
            1.0,
            1.0,
            1.0
          ],
          "specularFactor": 1.0,
          "specularTexture": {
            "index": 7
          }
        }
      },
      "name": "Paintings",
      "normalTexture": {
        "index": 6
      },
      "pbrMetallicRoughness": {
        "baseColorTexture": {
          "index": 4
        },
        "metallicRoughnessTexture": {
          "index": 5
        }
      }
    },
    {
      "alphaCutoff": 0.4373346661627921,
      "alphaMode": "MASK",
      "doubleSided": true,
      "extensions": {
        "KHR_materials_specular": {
          "specularColorFactor": [
            1.0,
            1.0,
            1.0
          ],
          "specularFactor": 1.0,
          "specularTexture": {
            "index": 12
          }
        },
        "KHR_materials_transmission": {
          "transmissionFactor": 1.0,
          "transmissionTexture": {
            "index": 11
          }
        }
      },
      "name": "philosopher-timeglas-photoalbum-glasses-shisha",
      "normalTexture": {
        "index": 10
      },
      "pbrMetallicRoughness": {
        "baseColorTexture": {
          "index": 8
        },
        "metallicRoughnessTexture": {
          "index": 9
        }
      }
    },
    {
      "doubleSided": true,
      "extensions": {
        "KHR_materials_specular": {
          "specularColorFactor": [
            1.0,
            1.0,
            1.0
          ],
          "specularFactor": 1.0,
          "specularTexture": {
            "index": 16
          }
        }
      },
      "name": "ratpig-sword-masks",
      "normalTexture": {
        "index": 15
      },
      "pbrMetallicRoughness": {
        "baseColorTexture": {
          "index": 13
        },
        "metallicRoughnessTexture": {
          "index": 14
        }
      }
    }
  ],
  "meshes": [
    {
      "name": "Object_0",
      "primitives": [
        {
          "attributes": {
            "NORMAL": 1,
            "POSITION": 0,
            "TANGENT": 2,
            "TEXCOORD_0": 3
          },
          "indices": 4,
          "material": 0,
          "mode": 4
        }
      ]
    },
    {
      "name": "Object_1",
      "primitives": [
        {
          "attributes": {
            "NORMAL": 6,
            "POSITION": 5,
            "TANGENT": 7,
            "TEXCOORD_0": 8
          },
          "indices": 9,
          "material": 1,
          "mode": 4
        }
      ]
    },
    {
      "name": "Object_2",
      "primitives": [
        {
          "attributes": {
            "NORMAL": 11,
            "POSITION": 10,
            "TANGENT": 12,
            "TEXCOORD_0": 13
          },
          "indices": 14,
          "material": 2,
          "mode": 4
        }
      ]
    },
    {
      "name": "Object_3",
      "primitives": [
        {
          "attributes": {
            "NORMAL": 16,
            "POSITION": 15,
            "TANGENT": 17,
            "TEXCOORD_0": 18
          },
          "indices": 19,
          "material": 3,
          "mode": 4
        }
      ]
    }
  ],
  "nodes": [
    {
      "children": [
        1
      ],
      "matrix": [
        1.0,
        0.0,
        0.0,
        0.0,
        0.0,
        2.220446049250313e-16,
        -1.0,
        0.0,
        0.0,
        1.0,
        2.220446049250313e-16,
        0.0,
        0.0,
        0.0,
        0.0,
        1.0
      ],
      "name": "Sketchfab_model"
    },
    {
      "children": [
        2,
        3,
        4,
        5
      ],
      "name": "victorian dec props.obj.cleaner.materialmerger.gles"
    },
    {
      "mesh": 0,
      "name": "Object_2"
    },
    {
      "mesh": 1,
      "name": "Object_3"
    },
    {
      "mesh": 2,
      "name": "Object_4"
    },
    {
      "mesh": 3,
      "name": "Object_5"
    }
  ],
  "samplers": [
    {
      "magFilter": 9729,
      "minFilter": 9987,
      "wrapS": 10497,
      "wrapT": 10497
    }
  ],
  "scene": 0,
  "scenes": [
    {
      "name": "Sketchfab_Scene",
      "nodes": [
        0
      ]
    }
  ],
  "textures": [
    {
      "sampler": 0,
      "source": 0
    },
    {
      "sampler": 0,
      "source": 1
    },
    {
      "sampler": 0,
      "source": 2
    },
    {
      "sampler": 0,
      "source": 3
    },
    {
      "sampler": 0,
      "source": 4
    },
    {
      "sampler": 0,
      "source": 5
    },
    {
      "sampler": 0,
      "source": 6
    },
    {
      "sampler": 0,
      "source": 7
    },
    {
      "sampler": 0,
      "source": 8
    },
    {
      "sampler": 0,
      "source": 9
    },
    {
      "sampler": 0,
      "source": 10
    },
    {
      "sampler": 0,
      "source": 11
    },
    {
      "sampler": 0,
      "source": 12
    },
    {
      "sampler": 0,
      "source": 13
    },
    {
      "sampler": 0,
      "source": 14
    },
    {
      "sampler": 0,
      "source": 15
    },
    {
      "sampler": 0,
      "source": 16
    }
  ]
}
